<svg xmlns="http://www.w3.org/2000/svg" viewBox="0 0 100 100"><path fill="#c7ede6" d="M88.501,55.907c0.3-0.616,0.566-1.264,0.796-1.943c2.633-7.77-1.349-17.078-9.733-19.325c-0.906-11.384-8.906-19.193-17.941-20.526c-10.341-1.525-19.814,5.044-22.966,15.485c-3.799-1.346-7.501-1.182-10.99,0.857c-1.583,0.732-3.031,1.812-4.33,3.233c-1.907,2.086-3.147,4.719-3.652,7.495c-0.748,0.118-1.483,0.236-2.176,0.484c-4.04,1.449-6.589,4.431-7.288,8.923c-0.435,2.797,0.443,5.587,0.933,6.714c1.935,4.455,6.422,6.98,10.981,6.312c0.227-0.033,0.557,0.069,0.752,0.233c0.241,7.12,3.698,13.417,8.884,17.014c8.321,5.772,19.027,3.994,25.781-3.921c2.894,2.96,6.338,4.398,10.384,3.876c4.023-0.519,7.147-2.739,9.426-6.349c1.053,0.283,2.051,0.691,3.083,0.804c4.042,0.442,7.324-1.165,9.732-4.8c0.922-1.391,1.793-3.194,1.793-6.354C91.971,60.864,90.678,57.896,88.501,55.907z"/><path fill="#fdfcef" d="M76.606,49.278c0,0,11.691,0,11.762,0c2.7,0,4.888-2.189,4.888-4.889c0-2.355-1.666-4.321-3.884-4.784c0.026-0.206,0.043-0.415,0.043-0.628c0-2.796-2.267-5.063-5.063-5.063c-1.651,0-3.113,0.794-4.037,2.017c-0.236-3.113-3.017-5.514-6.27-5.116c-2.379,0.291-4.346,2.13-4.784,4.486c-0.14,0.756-0.126,1.489,0.014,2.177c-0.638-0.687-1.546-1.119-2.557-1.119c-1.85,0-3.361,1.441-3.48,3.261c-0.84-0.186-1.754-0.174-2.717,0.188c-1.84,0.691-3.15,2.423-3.227,4.387c-0.109,2.789,2.12,5.085,4.885,5.085c0.21,0,0.948,0,1.118,0H73.45"/><path fill="#472b29" d="M88.369,49.778H76.606c-0.276,0-0.5-0.224-0.5-0.5s0.224-0.5,0.5-0.5h11.762c2.419,0,4.388-1.969,4.388-4.389c0-2.066-1.466-3.873-3.486-4.295c-0.255-0.053-0.426-0.292-0.394-0.55c0.023-0.186,0.039-0.375,0.039-0.567c0-2.516-2.047-4.563-4.563-4.563c-1.438,0-2.765,0.663-3.638,1.818c-0.125,0.166-0.339,0.238-0.54,0.178c-0.199-0.059-0.342-0.234-0.357-0.441c-0.104-1.377-0.779-2.67-1.85-3.549c-1.083-0.888-2.456-1.282-3.86-1.109c-2.166,0.265-3.956,1.943-4.353,4.081c-0.124,0.668-0.12,1.336,0.012,1.986c0.045,0.219-0.062,0.442-0.261,0.544c-0.199,0.102-0.442,0.06-0.595-0.104c-0.575-0.619-1.353-0.959-2.19-0.959c-1.569,0-2.878,1.227-2.981,2.794c-0.01,0.146-0.082,0.28-0.199,0.367c-0.117,0.087-0.269,0.118-0.408,0.088c-0.84-0.185-1.636-0.132-2.433,0.167c-1.669,0.626-2.836,2.209-2.903,3.938c-0.047,1.207,0.387,2.35,1.222,3.218c0.835,0.868,1.959,1.347,3.164,1.347H73.45c0.276,0,0.5,0.224,0.5,0.5s-0.224,0.5-0.5,0.5H62.181c-1.479,0-2.859-0.587-3.884-1.654c-1.025-1.066-1.558-2.469-1.5-3.95c0.083-2.126,1.51-4.069,3.551-4.835c0.801-0.3,1.628-0.399,2.468-0.299c0.377-1.822,1.997-3.182,3.905-3.182c0.684,0,1.354,0.179,1.944,0.51c0-0.385,0.035-0.772,0.107-1.159c0.476-2.562,2.62-4.573,5.215-4.891c1.679-0.208,3.32,0.266,4.616,1.328c1.003,0.823,1.716,1.951,2.038,3.193c1.012-0.916,2.319-1.425,3.714-1.425c3.067,0,5.563,2.496,5.563,5.563c0,0.083-0.002,0.166-0.007,0.249c2.254,0.672,3.848,2.777,3.848,5.164C93.757,47.361,91.34,49.778,88.369,49.778z"/><path fill="#fdfcef" d="M73.773,38.509c-1.808-0.119-3.365,1.13-3.476,2.789c-0.014,0.206-0.005,0.409,0.025,0.606c-0.349-0.394-0.865-0.661-1.458-0.7c-1.085-0.071-2.022,0.645-2.158,1.62c-0.197-0.054-0.403-0.09-0.616-0.104c-1.582-0.104-2.944,0.989-3.042,2.441"/><path fill="#472b29" d="M63.049,45.41c-0.006,0-0.012,0-0.017,0c-0.138-0.009-0.242-0.128-0.233-0.266c0.106-1.587,1.576-2.789,3.308-2.673c0.135,0.009,0.272,0.027,0.409,0.053c0.273-0.968,1.263-1.642,2.366-1.568c0.425,0.028,0.823,0.16,1.163,0.382c0.001-0.019,0.002-0.038,0.003-0.056c0.12-1.793,1.784-3.153,3.742-3.022c0.138,0.009,0.242,0.128,0.233,0.266c-0.009,0.138-0.133,0.251-0.266,0.233c-1.658-0.106-3.108,1.038-3.21,2.557c-0.013,0.184-0.005,0.37,0.023,0.551c0.017,0.11-0.041,0.217-0.141,0.264c-0.1,0.047-0.219,0.023-0.293-0.06c-0.318-0.359-0.788-0.583-1.287-0.616c-0.942-0.068-1.776,0.554-1.894,1.405c-0.01,0.071-0.05,0.134-0.11,0.174c-0.061,0.04-0.134,0.051-0.204,0.033c-0.188-0.051-0.38-0.084-0.567-0.096c-1.444-0.103-2.687,0.895-2.775,2.208C63.289,45.309,63.18,45.41,63.049,45.41z"/><path fill="#fdfcef" d="M90.348,40.178c-1.699-0.801-3.664-0.234-4.389,1.267c-0.09,0.186-0.157,0.379-0.201,0.574"/><path fill="#472b29" d="M85.758,42.268c-0.018,0-0.037-0.002-0.056-0.006c-0.135-0.031-0.219-0.165-0.188-0.299c0.049-0.216,0.123-0.427,0.219-0.626c0.784-1.623,2.903-2.243,4.721-1.384c0.125,0.059,0.179,0.208,0.12,0.333c-0.059,0.125-0.21,0.178-0.333,0.12c-1.575-0.741-3.394-0.226-4.058,1.149c-0.08,0.166-0.141,0.341-0.182,0.521C85.975,42.19,85.872,42.268,85.758,42.268z"/><path fill="#fff" d="M71.344 21.666h-10.03c-.276 0-.5-.224-.5-.5s.224-.5.5-.5h10.03c.276 0 .5.224.5.5S71.62 21.666 71.344 21.666zM74.225 21.666H72.78c-.276 0-.5-.224-.5-.5s.224-.5.5-.5h1.446c.276 0 .5.224.5.5S74.502 21.666 74.225 21.666zM78.28 21.666h-2.546c-.276 0-.5-.224-.5-.5s.224-.5.5-.5h2.546c.276 0 .5.224.5.5S78.556 21.666 78.28 21.666zM76.254 17.936h-9.616c-.276 0-.5-.224-.5-.5s.224-.5.5-.5h9.616c.276 0 .5.224.5.5S76.53 17.936 76.254 17.936zM64.906 17.936h-.58c-.276 0-.5-.224-.5-.5s.224-.5.5-.5h.58c.276 0 .5.224.5.5S65.182 17.936 64.906 17.936zM62.529 17.936h-1.456c-.276 0-.5-.224-.5-.5s.224-.5.5-.5h1.456c.276 0 .5.224.5.5S62.806 17.936 62.529 17.936zM73.691 19.801h-5.027c-.276 0-.5-.224-.5-.5s.224-.5.5-.5h5.027c.276 0 .5.224.5.5S73.967 19.801 73.691 19.801z"/><path fill="#fff" d="M73.691 17.936h-1.257c-.276 0-.5-.224-.5-.5s.224-.5.5-.5h1.257c.276 0 .5.224.5.5S73.967 17.936 73.691 17.936zM67.208 19.801H65.45c-.276 0-.5-.224-.5-.5s.224-.5.5-.5h1.759c.276 0 .5.224.5.5S67.485 19.801 67.208 19.801z"/><path fill="#88ae45" d="M66.612,72.876H36.899c-3.766,0-6.847-3.081-6.847-6.847V36.316c0-3.766,3.081-6.847,6.847-6.847h29.713c3.766,0,6.847,3.081,6.847,6.847v29.713C73.46,69.795,70.378,72.876,66.612,72.876z"/><path fill="#472b29" d="M66.612,73.576H36.899c-4.162,0-7.547-3.386-7.547-7.547V36.316c0-4.162,3.386-7.547,7.547-7.547h29.713c4.162,0,7.547,3.386,7.547,7.547v29.713C74.16,70.191,70.774,73.576,66.612,73.576z M36.899,30.169c-3.39,0-6.147,2.757-6.147,6.147v29.713c0,3.39,2.757,6.147,6.147,6.147h29.713c3.39,0,6.147-2.757,6.147-6.147V36.316c0-3.39-2.757-6.147-6.147-6.147H36.899z"/><path fill="#fdfcee" d="M64.81,69.775H38.701c-3.052,0-5.549-2.497-5.549-5.549V38.118c0-3.052,2.497-5.549,5.549-5.549H64.81c3.052,0,5.549,2.497,5.549,5.549v26.109C70.359,67.279,67.862,69.775,64.81,69.775z"/><path fill="#472b29" d="M64.705 70.126H38.807c-3.311 0-6.004-2.694-6.004-6.004V38.223c0-3.311 2.693-6.004 6.004-6.004h24.663c.193 0 .35.157.35.35s-.157.35-.35.35H38.807c-2.924 0-5.304 2.379-5.304 5.304v25.898c0 2.925 2.379 5.304 5.304 5.304h25.898c2.925 0 5.304-2.379 5.304-5.304V49.794c0-.193.157-.35.35-.35s.35.157.35.35v14.327C70.709 67.432 68.015 70.126 64.705 70.126zM70.359 48.077c-.193 0-.35-.157-.35-.35v-2.756c0-.193.157-.35.35-.35s.35.157.35.35v2.756C70.709 47.921 70.553 48.077 70.359 48.077zM70.359 43.943c-.193 0-.35-.157-.35-.35v-1.378c0-.193.157-.35.35-.35s.35.157.35.35v1.378C70.709 43.786 70.553 43.943 70.359 43.943z"/><path fill="#fdfcef" d="M40.443,75.643c1.883,0,3.517,0,3.54,0c2.11,0,3.821-1.674,3.821-3.739c0-1.802-1.302-3.305-3.035-3.66c0.02-0.158,0.034-0.317,0.034-0.48c0-2.139-1.772-3.873-3.957-3.873c-1.29,0-2.433,0.607-3.155,1.543c-0.185-2.381-2.358-4.218-4.9-3.913c-1.859,0.223-3.397,1.629-3.739,3.431c-0.11,0.578-0.098,1.139,0.011,1.665c-0.498-0.525-1.208-0.856-1.998-0.856c-1.446,0-2.627,1.102-2.72,2.494c-0.657-0.142-1.371-0.133-2.123,0.143c-1.438,0.528-2.462,1.853-2.522,3.356c-0.085,2.133,1.657,3.889,3.818,3.889c0.164,0,0.741,0,0.874,0h7.934 M33.965,75.643h0.36"/><path fill="#472b29" d="M43.983,76.143h-3.541c-0.276,0-0.5-0.224-0.5-0.5s0.224-0.5,0.5-0.5h3.541c1.831,0,3.32-1.453,3.32-3.239c0-1.524-1.108-2.857-2.636-3.17c-0.256-0.052-0.429-0.293-0.396-0.553c0.018-0.137,0.03-0.276,0.03-0.417c0-1.86-1.551-3.373-3.457-3.373c-1.092,0-2.098,0.492-2.76,1.349c-0.126,0.164-0.34,0.233-0.539,0.173c-0.198-0.059-0.339-0.234-0.355-0.44c-0.079-1.019-0.565-1.943-1.369-2.603c-0.828-0.68-1.886-0.984-2.973-0.853c-1.646,0.197-3.006,1.442-3.307,3.028c-0.094,0.495-0.091,0.989,0.009,1.471c0.045,0.219-0.06,0.441-0.258,0.544c-0.197,0.104-0.441,0.063-0.594-0.099c-0.428-0.452-1.009-0.7-1.635-0.7c-1.169,0-2.145,0.891-2.221,2.028c-0.01,0.145-0.082,0.279-0.198,0.366c-0.116,0.087-0.264,0.119-0.407,0.089c-0.638-0.138-1.242-0.098-1.845,0.124c-1.262,0.464-2.144,1.632-2.195,2.906c-0.035,0.875,0.283,1.708,0.895,2.345c0.635,0.661,1.496,1.024,2.423,1.024h8.807c0.276,0,0.5,0.224,0.5,0.5s-0.224,0.5-0.5,0.5h-8.807c-1.185,0-2.331-0.485-3.144-1.332c-0.803-0.835-1.219-1.928-1.173-3.078c0.067-1.674,1.212-3.203,2.849-3.805c0.61-0.224,1.241-0.305,1.88-0.245c0.344-1.396,1.629-2.424,3.135-2.424c0.493,0,0.977,0.113,1.414,0.323c0.009-0.242,0.037-0.484,0.083-0.726c0.381-2.009,2.096-3.586,4.17-3.834c1.361-0.162,2.684,0.218,3.726,1.072c0.748,0.614,1.278,1.41,1.546,2.302c0.791-0.648,1.786-1.007,2.842-1.007c2.458,0,4.457,1.962,4.457,4.373c0,0.034,0,0.068-0.001,0.103c1.764,0.555,3.003,2.188,3.003,4.038C48.304,74.241,46.366,76.143,43.983,76.143z M34.325,76.143h-0.36c-0.276,0-0.5-0.224-0.5-0.5s0.224-0.5,0.5-0.5h0.36c0.276,0,0.5,0.224,0.5,0.5S34.601,76.143,34.325,76.143z"/><path fill="#472b29" d="M42.275 70.34c-.018 0-.036-.002-.055-.006-.135-.03-.219-.164-.189-.299.037-.164.094-.325.17-.479.605-1.224 2.275-1.675 3.722-1.007.125.058.18.207.122.332-.058.125-.206.179-.332.122-1.203-.556-2.578-.209-3.063.774-.058.118-.102.242-.13.367C42.493 70.261 42.39 70.34 42.275 70.34zM37.117 76.143H36.01c-.276 0-.5-.224-.5-.5s.224-.5.5-.5h1.107c.276 0 .5.224.5.5S37.393 76.143 37.117 76.143z"/><path fill="#88ae45" d="M62.172,40.632c0,0,1.53,10.321-3.893,15.744s-15.744,3.893-15.744,3.893s-1.53-10.321,3.893-15.744S62.172,40.632,62.172,40.632z"/><path fill="#472b29" d="M45.907,60.977c-1.937,0-3.292-0.192-3.444-0.214c-0.218-0.032-0.389-0.204-0.421-0.421c-0.064-0.432-1.503-10.634,4.034-16.17c5.537-5.537,15.739-4.098,16.17-4.034c0.218,0.032,0.389,0.204,0.421,0.421c0.064,0.432,1.503,10.634-4.034,16.17C55.041,60.322,49.484,60.977,45.907,60.977z M42.985,59.819c1.88,0.201,10.333,0.811,14.941-3.797c4.607-4.607,3.998-13.061,3.797-14.941c-1.879-0.201-10.333-0.811-14.941,3.797C42.175,49.485,42.785,57.939,42.985,59.819z"/><path fill="#88ae45" d="M62.172 40.632L42.536 60.268"/><path fill="#472b29" d="M42.536,60.593c-0.083,0-0.167-0.032-0.23-0.095c-0.127-0.127-0.127-0.333,0-0.46l19.636-19.636c0.127-0.127,0.333-0.127,0.46,0s0.127,0.333,0,0.46L42.766,60.498C42.703,60.562,42.619,60.593,42.536,60.593z"/><path fill="#88ae45" d="M44.484 58.218L44.001 48.112"/><path fill="#472b29" d="M44.484,58.393c-0.093,0-0.17-0.073-0.175-0.167L43.826,48.12c-0.004-0.097,0.07-0.179,0.167-0.183c0.115-0.008,0.178,0.07,0.183,0.167l0.483,10.107c0.004,0.097-0.07,0.179-0.167,0.183C44.49,58.393,44.487,58.393,44.484,58.393z"/><path fill="#88ae45" d="M47.271 55.562L46.729 44.236"/><path fill="#472b29" d="M47.27,55.737c-0.093,0-0.17-0.073-0.175-0.167l-0.542-11.326c-0.004-0.097,0.07-0.179,0.167-0.183c0.11,0.001,0.179,0.07,0.183,0.167l0.542,11.326c0.004,0.097-0.07,0.179-0.167,0.183C47.276,55.737,47.273,55.737,47.27,55.737z"/><path fill="#88ae45" d="M50.057 52.906L49.55 42.317"/><path fill="#472b29" d="M50.057,53.081c-0.093,0-0.17-0.073-0.175-0.167l-0.507-10.589c-0.004-0.097,0.07-0.179,0.167-0.183c0.107-0.003,0.179,0.07,0.183,0.167l0.507,10.589c0.004,0.097-0.07,0.179-0.167,0.183C50.062,53.081,50.059,53.081,50.057,53.081z"/><path fill="#88ae45" d="M52.843 49.991L52.424 41.235"/><path fill="#472b29" d="M52.843,50.166c-0.093,0-0.17-0.073-0.175-0.167l-0.419-8.756c-0.004-0.097,0.07-0.179,0.167-0.183c0.108-0.006,0.179,0.07,0.183,0.167l0.419,8.756c0.004,0.097-0.07,0.179-0.167,0.183C52.848,50.166,52.846,50.166,52.843,50.166z"/><path fill="#88ae45" d="M55.629 47.197L55.317 40.658"/><path fill="#472b29" d="M55.629,47.372c-0.093,0-0.17-0.073-0.175-0.167l-0.312-6.54c-0.004-0.097,0.07-0.179,0.167-0.183c0.11,0,0.179,0.07,0.183,0.167l0.312,6.54c0.004,0.097-0.07,0.179-0.167,0.183C55.635,47.372,55.632,47.372,55.629,47.372z"/><path fill="#88ae45" d="M58.416 44.48L58.217 40.325"/><path fill="#472b29" d="M58.416,44.655c-0.093,0-0.17-0.073-0.175-0.167l-0.199-4.155c-0.004-0.097,0.07-0.179,0.167-0.183c0.104,0.008,0.179,0.07,0.183,0.167l0.199,4.155c0.004,0.097-0.07,0.179-0.167,0.183C58.421,44.655,58.418,44.655,58.416,44.655z"/><g><path fill="#fff" d="M18.431 50.95H8.401c-.276 0-.5-.224-.5-.5s.224-.5.5-.5h10.03c.276 0 .5.224.5.5S18.707 50.95 18.431 50.95zM21.312 50.95h-1.446c-.276 0-.5-.224-.5-.5s.224-.5.5-.5h1.446c.276 0 .5.224.5.5S21.589 50.95 21.312 50.95zM25.367 50.95h-2.546c-.276 0-.5-.224-.5-.5s.224-.5.5-.5h2.546c.276 0 .5.224.5.5S25.643 50.95 25.367 50.95zM25.367 52.815H15.75c-.276 0-.5-.224-.5-.5s.224-.5.5-.5h9.617c.276 0 .5.224.5.5S25.643 52.815 25.367 52.815zM14.019 52.815h-.58c-.276 0-.5-.224-.5-.5s.224-.5.5-.5h.58c.276 0 .5.224.5.5S14.295 52.815 14.019 52.815zM11.642 52.815h-1.456c-.276 0-.5-.224-.5-.5s.224-.5.5-.5h1.456c.276 0 .5.224.5.5S11.918 52.815 11.642 52.815zM20.778 49.085H15.75c-.276 0-.5-.224-.5-.5s.224-.5.5-.5h5.028c.276 0 .5.224.5.5S21.055 49.085 20.778 49.085zM20.778 47.22h-1.257c-.276 0-.5-.224-.5-.5s.224-.5.5-.5h1.257c.276 0 .5.224.5.5S21.055 47.22 20.778 47.22zM17.509 54.68H15.75c-.276 0-.5-.224-.5-.5s.224-.5.5-.5h1.759c.276 0 .5.224.5.5S17.786 54.68 17.509 54.68z"/></g></svg>